<?xml version="1.0" standalone="no"?>
<!DOCTYPE svg PUBLIC "-//W3C//DTD SVG 20010904//EN"
 "http://www.w3.org/TR/2001/REC-SVG-20010904/DTD/svg10.dtd">
<svg version="1.0" xmlns="http://www.w3.org/2000/svg"
 width="463.000000pt" height="360.000000pt" viewBox="0 0 463.000000 360.000000"
 preserveAspectRatio="xMidYMid meet">

<g transform="translate(0.000000,360.000000) scale(0.100000,-0.100000)"
fill="#000000" stroke="none">
<path d="M2706 2389 c-103 -34 -259 -110 -346 -169 -34 -23 -68 -39 -76 -36
-7 3 -13 2 -11 -3 1 -4 -25 -30 -58 -58 -33 -27 -81 -73 -107 -100 -26 -28
-50 -48 -55 -44 -4 3 1 -5 12 -18 29 -34 104 -69 175 -80 111 -18 226 18 314
99 35 32 42 45 38 68 -5 35 18 57 52 48 13 -3 26 -15 29 -26 8 -30 -119 -151
-201 -192 -118 -59 -280 -49 -395 24 -56 36 -45 43 -132 -88 -86 -129 -145
-254 -148 -313 -2 -43 2 -54 26 -78 l27 -28 423 -3 c274 -2 435 1 458 7 71 21
70 16 67 547 l-3 472 -89 -29z"/>
<path d="M1940 2006 c0 -2 7 -7 16 -10 8 -3 12 -2 9 4 -6 10 -25 14 -25 6z"/>
</g>
</svg>
